<?xml version="1.0" encoding="UTF-8" standalone="no"?>
<!-- Created with Inkscape (http://www.inkscape.org/) -->

<svg
   width="210mm"
   height="297mm"
   viewBox="0 0 210 297"
   version="1.1"
   id="svg1"
   xml:space="preserve"
   inkscape:version="1.4.3 (0d15f750, 2025-12-25)"
   sodipodi:docname="Swftly.svg"
   xmlns:inkscape="http://www.inkscape.org/namespaces/inkscape"
   xmlns:sodipodi="http://sodipodi.sourceforge.net/DTD/sodipodi-0.dtd"
   xmlns="http://www.w3.org/2000/svg"
   xmlns:svg="http://www.w3.org/2000/svg"><sodipodi:namedview
     id="namedview1"
     pagecolor="#ffffff"
     bordercolor="#000000"
     borderopacity="0.25"
     inkscape:showpageshadow="2"
     inkscape:pageopacity="0.0"
     inkscape:pagecheckerboard="0"
     inkscape:deskcolor="#d1d1d1"
     inkscape:document-units="mm"
     inkscape:zoom="0.65078972"
     inkscape:cx="175.17179"
     inkscape:cy="617.71105"
     inkscape:window-width="1710"
     inkscape:window-height="1073"
     inkscape:window-x="0"
     inkscape:window-y="34"
     inkscape:window-maximized="0"
     inkscape:current-layer="layer1" /><defs
     id="defs1" /><g
     inkscape:label="Layer 1"
     inkscape:groupmode="layer"
     id="layer1"><path
       style="fill:#18a1d3;stroke:none"
       d="m -28.965485,39.271099 v 1.756165 h 0.216846 l -0.216846,-1.756165 m 266.070055,0 V 254.40129 h 0.21684 V 101.61495 57.710829 44.978635 l -0.21684,-5.707536 m -266.070055,3.51233 V 254.40129 h 0.216846 V 104.2492 60.784118 48.271444 l -0.216846,-5.488015 M 100.70843,160.00743 c -3.281969,-3.905 -7.969358,-5.67688 -10.158465,-10.75651 -3.404128,-7.89895 3.005204,-14.76252 9.074232,-18.8786 6.759713,-4.5845 14.259513,-7.44695 21.901443,-10.12861 3.76218,-1.32021 8.21121,-1.81716 11.49284,-4.20629 4.4556,-3.24382 6.08189,-10.72567 4.55377,-15.95911 -4.94921,1.58822 -10.34123,2.20999 -15.39607,3.48929 -13.58384,3.43785 -27.808129,7.58306 -39.682817,15.32189 -2.641627,1.72157 -5.206826,3.65875 -7.353355,5.99464 -1.252993,1.36353 -2.367789,2.94161 -3.191788,4.60994 -5.203391,10.53514 5.608858,19.0483 13.580987,23.64656 4.776634,2.75513 9.947876,5.14358 15.179223,6.8668 M 107.6475,134.104 v 0.21952 c 2.56888,1.44926 5.00681,3.53626 6.99228,5.72396 6.12966,6.75398 4.65385,14.14545 -1.57113,20.17083 -7.3416,7.10619 -17.855093,10.78396 -27.322597,13.91094 -3.662956,1.20981 -8.07445,1.70072 -11.058981,4.35856 -4.581521,4.08002 -4.12024,9.71527 -4.12024,15.32579 6.19105,-0.27327 12.892491,-2.6296 18.865603,-4.22916 14.548785,-3.89608 31.853775,-8.58526 42.914925,-19.54174 1.40216,-1.38887 2.71988,-3.02626 3.66764,-4.76678 7.25254,-13.31882 -9.85806,-23.20162 -19.69366,-27.74089 -2.68757,-1.24035 -5.75437,-2.92212 -8.67384,-3.43103 z"
       id="path2" /></g></svg>
